<?xml version="1.0" standalone="no"?>
<!DOCTYPE svg PUBLIC "-//W3C//DTD SVG 20010904//EN"
 "http://www.w3.org/TR/2001/REC-SVG-20010904/DTD/svg10.dtd">
<svg version="1.0" xmlns="http://www.w3.org/2000/svg"
 width="516.000000pt" height="516.000000pt" viewBox="0 0 516.000000 516.000000"
 preserveAspectRatio="xMidYMid meet">
<metadata>
Created by potrace 1.14, written by Peter Selinger 2001-2017
</metadata>
<g transform="translate(0.000000,516.000000) scale(0.100000,-0.100000)"
fill="#000000" stroke="none">
<path d="M2388 5115 c-2 -1 -30 -5 -63 -9 -33 -3 -73 -8 -90 -12 -16 -3 -42
-7 -57 -8 -15 -1 -30 -5 -34 -8 -3 -4 -16 -4 -29 -2 -13 2 -27 0 -30 -6 -4 -6
-10 -8 -14 -5 -5 2 -38 -4 -75 -15 -36 -10 -66 -17 -66 -15 0 5 -186 -58 -250
-86 -30 -12 -58 -28 -62 -33 -4 -6 -8 -7 -8 -2 0 5 -9 1 -20 -9 -11 -10 -20
-15 -20 -11 0 8 -102 -63 -112 -78 -4 -6 -8 -8 -8 -3 0 8 -44 -36 -94 -94 -25
-30 -50 -77 -46 -88 1 -2 -3 -7 -9 -10 -30 -19 -34 -224 -6 -308 2 -7 2 -13
-1 -13 -6 0 -95 49 -109 60 -6 5 -22 11 -35 14 -14 3 -36 8 -50 11 -59 14
-166 4 -225 -21 -19 -8 -36 -13 -37 -12 -4 4 -80 -44 -96 -59 -7 -7 -16 -13
-20 -13 -4 0 -26 -18 -49 -39 -23 -21 -44 -36 -47 -33 -3 3 -6 1 -6 -5 0 -6
-19 -29 -41 -52 -23 -22 -39 -41 -36 -41 2 0 -11 -17 -29 -37 -19 -20 -34 -43
-34 -50 0 -7 -4 -13 -9 -13 -9 0 -101 -137 -101 -150 0 -5 -12 -22 -26 -39
-14 -17 -27 -37 -28 -45 -1 -8 -8 -21 -15 -30 -7 -9 -10 -16 -7 -16 4 0 0 -7
-8 -16 -9 -8 -14 -20 -11 -25 4 -5 2 -9 -2 -9 -7 0 -43 -68 -48 -90 0 -3 -10
-25 -22 -50 -21 -47 -30 -70 -32 -83 0 -4 -8 -21 -17 -38 -9 -17 -18 -42 -20
-55 -2 -13 -10 -36 -16 -51 -7 -16 -13 -32 -14 -38 -1 -5 -3 -14 -4 -20 -2 -5
-4 -14 -5 -20 -2 -5 -4 -12 -5 -15 -1 -3 -3 -12 -5 -20 -2 -8 -13 -58 -25
-110 -11 -52 -19 -103 -16 -112 2 -10 1 -16 -3 -13 -4 2 -8 -10 -9 -28 -1 -18
-4 -43 -7 -57 -13 -65 -19 -157 -19 -290 0 -148 6 -215 30 -320 3 -14 5 -26 5
-28 -1 -1 5 -18 13 -37 9 -20 16 -39 17 -43 0 -4 10 -25 21 -47 77 -150 188
-225 358 -241 30 -3 57 -8 59 -10 3 -2 -5 -13 -17 -24 -12 -12 -22 -18 -22
-14 0 3 -13 -7 -28 -24 -36 -39 -84 -102 -78 -102 3 0 -5 -20 -18 -45 -21 -39
-24 -57 -24 -152 1 -96 9 -147 35 -213 3 -8 7 -21 9 -29 4 -21 38 -85 47 -89
4 -2 5 -8 1 -13 -3 -5 0 -9 5 -9 6 0 11 -6 11 -14 0 -7 7 -19 15 -26 8 -7 13
-16 10 -20 -3 -5 -1 -10 3 -12 5 -1 28 -32 52 -68 24 -36 49 -70 54 -77 6 -6
31 -35 56 -65 51 -60 286 -298 294 -298 3 0 14 -8 25 -18 60 -56 90 -82 98
-82 4 -1 24 -14 43 -30 19 -17 40 -30 46 -30 7 0 14 -4 16 -9 2 -5 46 -34 98
-65 52 -30 102 -61 110 -68 8 -7 15 -11 15 -9 0 7 80 -32 87 -43 4 -6 8 -8 8
-3 0 4 17 -1 37 -12 21 -10 41 -19 46 -20 4 0 20 -7 36 -16 42 -21 191 -75
191 -68 0 3 7 0 15 -7 8 -6 19 -9 24 -6 5 4 12 2 15 -3 3 -5 27 -12 53 -16 27
-5 55 -10 63 -13 8 -2 78 -6 155 -7 102 -2 150 1 180 12 22 8 48 16 59 18 10
3 27 12 37 21 11 10 19 14 19 11 0 -6 17 7 59 43 32 29 78 95 105 155 25 53
29 57 39 40 6 -11 12 -22 12 -25 4 -47 137 -210 171 -210 8 0 14 -4 14 -10 0
-5 8 -10 18 -10 10 0 22 -4 28 -10 5 -5 18 -11 29 -13 11 -2 29 -8 40 -13 26
-11 294 -11 320 0 11 5 27 10 35 11 8 1 26 5 40 8 14 3 34 8 45 10 62 14 207
69 315 120 25 11 47 21 50 22 27 5 296 160 305 176 4 5 11 7 16 4 5 -4 9 -2 9
2 0 5 18 19 39 33 22 13 37 28 34 34 -3 5 -2 6 4 3 5 -3 21 4 35 16 15 12 41
33 59 47 62 48 299 286 293 293 -4 4 0 7 9 7 9 0 17 4 17 9 0 6 10 21 23 35
41 45 55 63 115 152 59 87 130 218 137 252 2 9 8 29 14 45 6 15 8 27 5 27 -4
0 -1 7 6 15 19 22 22 179 5 237 -7 25 -19 57 -26 70 -7 13 -12 26 -11 30 1 4
-32 41 -73 82 -41 42 -75 77 -75 79 0 2 15 5 33 6 43 3 91 9 95 11 1 1 10 3
20 4 26 3 92 29 92 37 0 4 8 10 18 13 44 14 127 116 169 206 22 50 43 110 37
110 -4 0 -2 6 3 13 6 6 11 19 11 27 1 22 11 95 12 95 10 0 15 300 6 360 -7 50
-17 139 -21 185 -2 19 -4 37 -5 40 -1 3 -2 8 -1 12 0 3 -6 30 -13 60 -8 29
-17 67 -20 83 -13 77 -36 158 -48 173 -6 7 -8 15 -5 18 5 5 -8 45 -38 119 -5
11 -9 22 -10 25 -1 3 -9 23 -19 45 -10 22 -19 45 -20 50 -1 6 -12 28 -23 50
-11 22 -21 43 -22 48 0 7 -41 81 -70 127 -8 14 -16 31 -17 39 -2 8 -7 17 -12
20 -4 3 -17 22 -28 41 -10 19 -22 39 -26 45 -134 186 -242 305 -328 361 -25
16 -48 33 -51 37 -3 5 -12 9 -20 11 -8 1 -23 7 -34 13 -61 34 -201 48 -280 29
-11 -2 -26 -5 -33 -5 -7 -1 -10 -6 -6 -13 4 -7 3 -8 -5 -4 -7 5 -38 -8 -72
-28 -33 -20 -62 -36 -65 -36 -2 0 -2 10 1 23 4 13 7 30 8 38 2 8 5 19 9 24 3
6 5 49 3 96 -3 118 -36 190 -137 293 -41 42 -78 73 -81 69 -4 -3 -7 -1 -7 5 0
7 -7 12 -15 12 -8 0 -15 4 -15 9 0 5 -8 11 -17 14 -10 4 -46 22 -80 41 -35 19
-63 32 -63 30 0 -2 -13 2 -29 10 -16 9 -31 12 -35 9 -3 -4 -6 -1 -6 6 0 7 -4
10 -8 7 -5 -3 -20 1 -35 9 -15 7 -37 15 -49 17 -13 2 -25 6 -28 9 -3 4 -21 9
-40 12 -19 3 -61 13 -93 21 -31 9 -72 18 -90 20 -17 2 -61 9 -97 15 -36 6 -83
13 -105 17 -38 6 -451 14 -457 9z m-258 -342 c435 -80 419 -80 910 2 193 33
425 35 522 5 113 -35 183 -94 242 -205 21 -40 26 -63 26 -120 0 -66 -29 -185
-50 -209 -5 -4 -24 3 -43 18 -18 14 -36 26 -39 26 -3 0 -40 21 -84 48 -101 60
-377 182 -414 182 -6 0 -39 9 -73 20 -226 73 -602 92 -882 45 -184 -30 -300
-64 -480 -137 -108 -44 -346 -175 -361 -199 -13 -22 -31 -5 -54 53 -34 86 -36
223 -4 283 22 40 133 157 157 164 6 2 26 9 42 17 65 29 106 33 285 30 136 -2
216 -8 300 -23z m313 -238 c-62 -31 -127 -99 -156 -163 -30 -66 -29 -178 2
-247 25 -56 92 -131 133 -149 26 -11 18 -14 -95 -36 -303 -58 -538 -181 -749
-392 -101 -101 -198 -222 -198 -247 0 -5 -7 -14 -15 -21 -20 -16 -101 -186
-132 -275 -60 -175 -90 -407 -73 -570 33 -323 132 -564 335 -816 127 -157 337
-307 562 -402 72 -31 204 -65 302 -78 90 -13 93 -14 70 -29 -99 -64 -161 -170
-162 -272 0 -133 77 -250 197 -298 l51 -20 -40 4 c-86 11 -190 20 -199 17 -24
-6 -338 81 -441 122 -45 18 -255 123 -304 153 -163 96 -431 334 -540 480 -23
30 -59 78 -81 107 -22 30 -40 56 -40 60 0 3 -21 41 -47 84 -119 200 -205 456
-243 718 -69 482 46 983 319 1395 263 396 679 698 1136 826 108 31 341 72 409
73 l50 1 -51 -25z m467 -1 c450 -71 864 -302 1188 -664 124 -138 262 -352 323
-500 17 -41 37 -88 44 -105 49 -114 94 -293 116 -465 39 -305 12 -595 -83
-890 -34 -106 -157 -364 -215 -452 -169 -255 -328 -419 -570 -586 -210 -145
-429 -240 -710 -306 -62 -15 -118 -26 -125 -25 -12 3 -87 -4 -193 -16 l-40 -5
43 14 c79 26 142 85 179 166 65 144 22 300 -109 393 l-47 34 97 13 c53 7 123
21 156 31 32 11 62 19 67 19 15 0 111 43 209 93 264 137 469 344 605 614 105
206 155 416 155 648 0 382 -142 724 -412 994 -233 233 -466 352 -810 413 l-68
11 30 15 c47 23 113 103 134 161 42 117 16 238 -71 327 -28 30 -71 63 -95 74
l-43 20 70 -5 c39 -2 117 -12 175 -21z m-217 -28 c91 -38 167 -154 167 -256 0
-64 -40 -159 -86 -202 -48 -45 -131 -78 -197 -78 -99 0 -203 67 -254 163 -23
45 -23 189 0 234 40 76 117 140 186 154 48 10 143 3 184 -15z m-1517 -196 c64
-32 154 -96 154 -108 0 -4 -16 -18 -35 -31 -105 -71 -396 -394 -463 -513 -11
-18 -33 -56 -50 -84 -186 -301 -303 -800 -272 -1157 12 -136 39 -304 68 -417
l20 -75 -81 -3 c-44 -2 -102 2 -128 7 -130 28 -237 167 -246 321 -9 142 36
274 223 646 126 252 167 360 183 480 52 389 120 661 194 777 72 112 193 184
313 186 49 1 72 -5 120 -29z m3033 15 c76 -26 146 -82 189 -148 95 -146 117
-230 197 -722 14 -88 38 -196 52 -240 14 -44 86 -201 160 -349 73 -148 133
-273 133 -278 0 -5 9 -29 20 -53 11 -25 30 -92 41 -149 17 -87 18 -115 10
-163 -23 -122 -101 -232 -197 -274 -46 -21 -185 -36 -227 -25 -28 7 -28 5 4
116 10 36 28 133 40 215 17 124 20 182 16 330 -2 99 -10 216 -16 260 -22 147
-90 393 -135 490 -61 129 -114 235 -131 260 -11 16 -26 41 -33 54 -7 13 -47
71 -89 129 -93 127 -235 277 -343 363 -44 34 -80 64 -80 65 0 8 110 85 154
108 40 21 63 26 121 26 40 0 91 -7 114 -15z m-1424 -432 c50 -8 101 -17 113
-18 77 -11 276 -96 401 -171 83 -51 216 -159 276 -225 101 -111 151 -181 222
-314 75 -139 127 -321 149 -522 l7 -63 -142 0 -141 0 0 -60 0 -60 -125 0 -124
0 -3 58 -3 57 -103 3 -103 3 3 62 3 62 62 12 c69 14 189 72 223 108 19 20 21
29 13 61 l-9 38 -88 13 c-89 13 -111 22 -221 95 -37 24 -51 41 -55 63 -4 21
-12 31 -28 33 -21 3 -22 8 -22 97 l0 93 34 6 c19 4 68 20 108 37 40 17 83 35
95 39 20 8 21 12 11 42 -6 18 -12 35 -14 36 -4 5 -79 22 -126 27 -22 3 -49 10
-59 16 -24 12 -89 108 -89 130 0 9 -8 23 -18 32 -17 16 -26 15 -128 -4 -147
-29 -485 -32 -614 -6 -148 30 -149 30 -179 -28 -34 -65 -68 -113 -89 -124 -9
-5 -37 -12 -62 -15 -51 -7 -120 -23 -124 -28 -2 -1 -8 -18 -14 -36 -11 -32
-10 -34 21 -47 121 -50 166 -66 199 -72 l38 -6 0 -93 c0 -93 0 -94 -24 -94
-19 0 -26 -7 -31 -29 -7 -35 -18 -44 -116 -105 -67 -40 -88 -48 -163 -58 l-86
-12 -12 -39 c-12 -39 -11 -41 22 -69 51 -43 145 -87 215 -101 l60 -12 3 -62 3
-63 -101 0 -100 0 0 -60 0 -60 -130 0 -130 0 0 60 0 60 -140 0 -140 0 0 33 c0
65 39 267 70 357 28 82 84 203 138 295 35 61 142 192 209 256 199 192 427 312
693 365 172 34 295 36 465 7z m-605 -413 c0 -100 -2 -120 -15 -120 -12 0 -15
18 -15 104 0 105 5 136 21 136 5 0 9 -54 9 -120z m80 0 c0 -100 -2 -120 -15
-120 -12 0 -15 20 -15 120 0 100 3 120 15 120 13 0 15 -20 15 -120z m670 0 c0
-100 -2 -120 -15 -120 -12 0 -15 20 -15 120 0 100 3 120 15 120 13 0 15 -20
15 -120z m74 98 c3 -13 6 -67 6 -120 0 -81 -3 -98 -15 -98 -12 0 -15 20 -15
120 0 112 9 151 24 98z m-656 -111 c3 -112 2 -117 -18 -117 -19 0 -20 6 -20
113 0 63 3 117 7 121 20 20 28 -9 31 -117z m502 2 c0 -109 -2 -120 -17 -117
-16 3 -18 17 -21 107 -3 115 0 131 23 131 13 0 15 -19 15 -121z m-420 -4 c0
-96 -3 -115 -15 -115 -12 0 -15 19 -15 115 0 96 3 115 15 115 12 0 15 -19 15
-115z m80 -5 c0 -100 -2 -120 -15 -120 -12 0 -15 20 -15 120 0 100 3 120 15
120 13 0 15 -20 15 -120z m80 5 c0 -96 -3 -115 -15 -115 -12 0 -15 19 -15 115
0 96 3 115 15 115 12 0 15 -19 15 -115z m90 -5 c0 -100 -2 -120 -15 -120 -12
0 -15 20 -15 120 0 100 3 120 15 120 13 0 15 -20 15 -120z m85 0 c0 -101 -2
-115 -17 -118 -16 -3 -18 8 -18 118 0 110 2 121 18 118 15 -3 17 -17 17 -118z
m-675 -30 c0 -47 -3 -60 -15 -60 -11 0 -15 12 -15 48 0 40 12 72 27 72 2 0 3
-27 3 -60z m998 -8 c2 -52 1 -61 -13 -56 -20 8 -23 128 -2 122 7 -3 13 -28 15
-66z m-1078 -8 c0 -24 -4 -34 -12 -32 -15 5 -22 42 -14 64 10 25 26 5 26 -32z
m1165 5 c0 -24 -5 -35 -17 -37 -14 -3 -18 4 -18 31 0 18 3 37 7 41 15 14 28
-2 28 -35z m-1247 8 c2 -10 -3 -17 -12 -17 -18 0 -29 16 -21 31 9 14 29 6 33
-14z m1342 8 c0 -16 -27 -32 -37 -22 -3 4 -3 13 0 22 8 20 37 20 37 0z m-1030
-235 l0 -70 -50 0 -50 0 0 70 0 70 50 0 50 0 0 -70z m160 0 l0 -70 -50 0 -50
0 0 70 0 70 50 0 50 0 0 -70z m150 0 l0 -70 -50 0 -50 0 0 70 0 70 50 0 50 0
0 -70z m160 0 l0 -70 -50 0 -50 0 0 70 0 70 50 0 50 0 0 -70z m150 0 l0 -70
-45 0 -45 0 0 70 0 70 45 0 45 0 0 -70z m160 0 l0 -70 -50 0 -50 0 0 70 0 70
50 0 50 0 0 -70z m-920 -300 c0 -118 -2 -140 -15 -140 -13 0 -15 22 -15 140 0
118 2 140 15 140 13 0 15 -22 15 -140z m80 0 c0 -118 -2 -140 -15 -140 -13 0
-15 22 -15 140 0 118 2 140 15 140 13 0 15 -22 15 -140z m80 0 c0 -118 -2
-140 -15 -140 -13 0 -15 22 -15 140 0 118 2 140 15 140 13 0 15 -22 15 -140z
m90 74 c0 -62 1 -65 23 -62 20 3 22 9 25 66 2 46 7 62 17 62 12 0 15 -15 15
-65 0 -63 1 -65 25 -65 24 0 25 2 25 65 0 51 3 65 15 65 12 0 15 -14 15 -65 0
-63 1 -65 25 -65 24 0 25 2 25 65 0 50 3 65 15 65 10 0 15 -16 17 -62 3 -60 4
-63 31 -66 l27 -3 0 65 c0 51 3 66 15 66 10 0 15 -16 17 -62 3 -57 5 -63 26
-66 21 -3 22 0 22 62 0 59 2 66 20 66 18 0 20 -7 20 -65 0 -58 2 -65 20 -65
18 0 20 7 20 65 0 58 2 65 20 65 19 0 20 -7 20 -185 l0 -185 145 0 145 0 0
-45 0 -45 -45 0 -44 0 -3 -57 -3 -58 -97 -3 -98 -3 0 -29 0 -30 125 0 125 0 0
60 0 60 130 0 130 0 0 -60 0 -60 185 0 185 0 0 60 0 60 111 0 112 0 -7 -67
c-26 -267 -95 -468 -231 -673 -116 -174 -337 -371 -520 -462 -47 -24 -140 -61
-212 -85 l-31 -11 -6 42 c-3 22 -12 120 -21 216 -9 96 -20 216 -24 265 -11
113 -40 190 -96 253 -61 68 -128 96 -225 96 -132 0 -224 -61 -282 -184 -26
-55 -32 -83 -39 -180 -4 -63 -17 -198 -29 -299 -11 -101 -20 -190 -20 -197 0
-16 -146 34 -243 83 -278 141 -525 403 -644 683 -60 140 -113 365 -113 478 l0
43 108 -3 107 -3 3 -57 3 -58 184 0 185 0 0 60 0 60 125 0 125 0 0 -60 0 -60
130 0 130 0 0 30 0 30 -95 0 -94 0 -3 58 -3 57 -42 3 -43 3 0 45 0 44 140 0
140 0 0 185 c0 178 1 185 20 185 18 0 20 -7 20 -66z m580 -74 c0 -118 -2 -140
-15 -140 -13 0 -15 22 -15 140 0 118 2 140 15 140 13 0 15 -22 15 -140z m80 0
c0 -118 -2 -140 -15 -140 -13 0 -15 22 -15 140 0 118 2 140 15 140 13 0 15
-22 15 -140z m80 0 c0 -118 -2 -140 -15 -140 -13 0 -15 22 -15 140 0 118 2
140 15 140 13 0 15 -22 15 -140z m-1070 -35 c0 -98 -1 -105 -20 -105 -19 0
-20 7 -20 91 0 76 3 94 18 105 9 7 18 14 20 14 1 0 2 -47 2 -105z m1148 93 c8
-8 12 -46 12 -105 0 -86 -1 -93 -20 -93 -19 0 -20 7 -20 105 0 103 4 117 28
93z m-1240 -120 c-2 -57 -6 -73 -18 -73 -19 0 -27 110 -9 131 23 28 30 13 27
-58z m1331 58 c18 -21 10 -131 -9 -131 -12 0 -16 16 -18 73 -3 71 4 86 27 58z
m-1419 -71 c0 -35 -3 -43 -15 -39 -9 4 -15 19 -15 39 0 28 6 37 28 44 1 1 2
-19 2 -44z m1508 3 c2 -25 -2 -37 -12 -41 -13 -5 -16 2 -16 39 0 55 23 57 28
2z m-1588 7 c0 -18 -4 -23 -15 -19 -8 4 -15 15 -15 25 0 10 7 19 15 19 9 0 15
-9 15 -25z m1670 6 c0 -10 -7 -21 -15 -25 -11 -4 -15 1 -15 19 0 16 6 25 15
25 8 0 15 -9 15 -19z m-745 -831 c48 -21 90 -61 116 -112 20 -40 44 -136 36
-144 -3 -3 -33 32 -68 77 l-63 81 -27 -32 -27 -31 -33 45 c-18 25 -36 46 -40
46 -4 0 -23 -21 -41 -46 l-33 -46 -26 32 -27 32 -42 -54 c-24 -29 -49 -63 -57
-75 -21 -32 -37 -29 -29 5 20 84 35 119 70 159 78 89 181 111 291 63z m-2055
-177 c28 -86 132 -296 198 -401 254 -401 637 -701 1085 -853 163 -55 450 -108
590 -109 l49 0 -7 -42 c-29 -174 -145 -288 -308 -303 -189 -18 -358 88 -687
429 -96 100 -271 251 -313 271 -17 8 -43 22 -57 30 -14 9 -116 62 -228 120
-409 210 -531 321 -564 513 -23 135 22 236 147 329 39 29 73 53 77 53 3 0 12
-17 18 -37z m3987 -6 c116 -86 163 -167 163 -282 0 -143 -72 -258 -235 -374
-97 -69 -137 -91 -429 -243 -261 -135 -272 -144 -526 -394 -232 -228 -324
-304 -437 -360 l-92 -46 -103 4 c-147 5 -228 48 -287 152 -24 43 -61 152 -61
180 0 3 19 6 43 6 70 0 296 30 392 52 612 141 1125 549 1398 1113 31 64 77
174 91 218 8 25 17 22 83 -26z m-2015 -1 c16 -22 16 -24 -5 -44 l-22 -20 -17
22 c-15 21 -15 25 -2 45 19 26 25 26 46 -3z m-79 -88 l56 -67 45 52 c25 28 53
62 63 75 l18 23 73 -92 73 -92 10 -146 c5 -80 13 -179 17 -218 7 -63 6 -73 -7
-74 -9 0 -42 -4 -74 -8 -56 -7 -58 -6 -52 13 26 90 17 139 -36 200 -39 44 -41
49 -34 91 3 25 4 45 1 45 -2 0 -11 3 -20 6 -10 4 -20 -5 -30 -25 -27 -52 -21
-82 34 -146 56 -67 61 -89 30 -159 -18 -44 -21 -46 -60 -46 l-41 0 22 29 c13
18 23 49 26 87 5 55 3 62 -26 97 -40 52 -45 70 -26 107 13 25 14 35 4 46 -20
24 -36 16 -53 -26 -22 -56 -20 -94 8 -127 52 -63 53 -77 14 -165 -22 -49 -44
-60 -77 -39 -12 8 -10 15 12 40 37 44 41 79 17 140 -22 58 -25 102 -9 133 9
17 7 24 -9 41 l-20 20 -17 -34 c-23 -44 -25 -125 -2 -168 23 -46 22 -60 -10
-109 -33 -50 -48 -56 -118 -47 -53 6 -54 6 -49 38 10 74 34 333 34 369 0 30 8
50 33 81 18 23 50 64 71 90 21 27 42 45 46 40 4 -4 32 -38 63 -75z m140 -637
c22 -5 60 -27 85 -49 72 -60 126 -148 63 -101 -90 66 -231 -1 -231 -111 0 -65
-78 -150 -139 -150 -30 0 -89 33 -113 63 -21 26 -25 141 -6 184 31 73 113 147
182 163 44 11 114 11 159 1z"/>
<path d="M1845 4289 l-50 -28 -16 21 c-13 17 -19 19 -37 9 -24 -13 -29 -36
-11 -47 7 -4 -1 -14 -20 -26 -31 -20 -51 -17 -51 8 0 17 -14 18 -41 3 -15 -8
-19 -17 -14 -37 5 -24 0 -30 -49 -56 -49 -27 -54 -32 -44 -50 6 -12 12 -22 13
-24 2 -2 29 11 61 28 l59 31 3 -50 c2 -30 -5 -78 -17 -116 -19 -63 -19 -66 -1
-75 27 -14 29 -13 43 22 l13 31 37 -71 c21 -40 42 -72 47 -72 18 0 40 13 40
23 0 6 -23 56 -52 111 -46 88 -52 108 -53 161 0 55 2 61 29 78 23 15 31 16 37
5 6 -8 3 -18 -8 -25 -15 -11 -10 -24 42 -125 32 -62 65 -121 73 -130 21 -25
62 -22 102 7 19 14 39 25 46 25 23 0 55 52 52 84 -3 27 -7 31 -36 34 -33 3
-34 3 -27 -27 6 -28 3 -31 -45 -56 -29 -15 -53 -25 -54 -23 -1 2 -12 21 -25
42 l-22 39 58 59 c55 57 57 60 39 74 -29 21 -38 18 -81 -26 -42 -43 -56 -42
-74 10 -8 24 -7 31 7 39 13 7 14 12 4 23 -10 12 -2 20 46 43 65 32 74 42 61
67 -13 23 -24 22 -84 -13z"/>
<path d="M1335 4022 l-28 -14 74 -74 c57 -58 71 -76 61 -86 -19 -19 -15 -25
19 -30 22 -3 33 0 40 13 18 34 8 55 -65 130 -73 75 -74 76 -101 61z"/>
<path d="M1257 3942 c-16 -17 -12 -22 53 -87 70 -69 70 -69 90 -50 19 20 19
20 -46 88 -37 37 -69 67 -74 67 -4 0 -14 -8 -23 -18z"/>
<path d="M1197 3872 c-16 -2 -34 -14 -44 -30 -10 -15 -34 -48 -55 -73 l-38
-47 28 -5 c19 -4 34 1 49 16 39 36 39 8 0 -31 -36 -37 -37 -39 -19 -55 17 -16
20 -16 42 8 36 39 44 32 37 -35 -7 -59 -6 -60 18 -60 22 0 25 5 31 51 l7 50
27 -26 c26 -25 27 -25 43 -7 22 25 22 29 -10 57 l-28 24 29 1 c16 0 38 -8 48
-17 18 -16 16 -19 -53 -89 -62 -62 -71 -75 -59 -88 20 -25 30 -20 82 37 l49
52 -4 -42 c-3 -23 -14 -54 -26 -69 -28 -36 -27 -44 9 -44 34 0 57 27 66 81 3
18 8 45 10 58 l5 24 29 -28 c29 -28 30 -28 50 -10 l20 18 -25 27 c-14 14 -25
31 -25 36 0 6 26 17 57 24 87 19 103 29 103 62 0 33 -2 34 -54 9 -23 -11 -54
-23 -71 -27 -30 -7 -30 -7 18 44 52 56 54 63 31 83 -15 12 -25 5 -86 -61 -64
-70 -70 -74 -83 -57 -9 13 -20 17 -34 12 -15 -5 -21 -2 -21 9 0 12 -10 16 -37
16 -34 0 -35 1 -20 18 21 23 21 36 1 53 -14 11 -21 8 -50 -24 -26 -28 -36 -34
-40 -23 -3 8 4 25 15 37 33 36 27 47 -22 41z"/>
<path d="M895 3393 c-34 -8 -72 -53 -85 -98 -24 -86 42 -169 178 -222 31 -12
72 -22 90 -22 71 -2 133 52 148 127 4 22 -1 45 -16 77 -18 37 -32 51 -67 66
-54 23 -79 24 -128 4 -44 -19 -81 -89 -71 -136 5 -26 3 -28 -12 -20 -88 47
-89 161 -1 161 21 0 28 6 33 27 10 38 -13 49 -69 36z m236 -136 c20 -15 39
-51 39 -72 0 -9 -14 -30 -30 -47 -26 -25 -36 -29 -62 -24 -68 14 -99 81 -62
134 12 17 25 22 57 22 23 0 49 -6 58 -13z"/>
<path d="M738 3023 c-76 -80 -57 -192 37 -223 28 -9 41 -9 66 4 39 20 36 20
42 -3 7 -30 66 -61 114 -61 57 0 97 35 119 105 15 45 15 61 5 94 -22 75 -129
118 -188 76 -20 -14 -24 -13 -47 10 -37 37 -112 36 -148 -2z m115 -51 c38 -34
9 -112 -43 -112 -72 0 -83 90 -15 127 21 12 29 10 58 -15z m208 -44 c13 -25 4
-82 -17 -103 -20 -20 -83 -19 -106 2 -18 16 -24 66 -12 98 18 46 111 48 135 3z"/>
<path d="M893 2700 c-18 -11 -33 -25 -33 -32 0 -6 -9 -2 -20 10 -28 30 -80 38
-119 18 -34 -18 -71 -81 -71 -121 0 -99 101 -167 172 -115 l30 22 27 -26 c21
-21 37 -26 75 -26 64 0 100 21 120 70 56 140 -64 272 -181 200z m119 -67 c26
-23 25 -96 -2 -123 -29 -29 -72 -25 -105 7 -22 23 -26 34 -21 62 3 18 13 42
22 52 21 24 81 25 106 2z m-202 -13 c40 -40 11 -112 -45 -112 -50 0 -73 62
-39 110 19 28 57 29 84 2z"/>
<path d="M1010 2359 c-30 -5 -119 -18 -197 -31 -122 -18 -143 -24 -143 -39 0
-11 14 -25 35 -35 23 -11 40 -29 52 -55 13 -30 22 -39 38 -37 17 3 20 9 17 50
l-3 46 53 11 c29 6 94 17 143 24 57 8 90 17 89 25 -1 7 -2 21 -2 32 -2 22 -1
22 -82 9z"/>
<path d="M1090 1999 c-19 -11 -94 -48 -167 -82 l-132 -62 60 -130 c33 -71 62
-131 64 -133 8 -8 45 10 45 23 0 7 -20 57 -45 111 -25 53 -44 98 -43 98 2 1
24 11 51 24 26 12 50 22 52 22 2 0 25 -43 50 -95 44 -90 47 -94 70 -83 22 10
23 12 10 47 -8 20 -27 63 -43 96 l-30 60 27 16 c65 41 68 40 119 -71 37 -80
51 -100 65 -96 17 4 25 -9 9 -16 -5 -1 -27 -30 -49 -63 -22 -33 -69 -103 -105
-155 -62 -90 -65 -96 -51 -117 22 -33 6 -38 213 60 47 22 89 42 95 45 5 3 -1
-10 -13 -29 -13 -18 -40 -60 -60 -93 -20 -32 -49 -74 -64 -93 -16 -20 -28 -41
-28 -48 0 -14 32 -45 46 -45 5 0 89 40 186 88 l177 88 -23 29 -23 29 -29 -19
c-49 -32 -236 -127 -233 -118 2 5 39 62 83 127 73 109 78 119 66 142 -8 13
-19 24 -26 24 -8 0 -71 -27 -141 -59 -71 -33 -130 -58 -132 -55 -2 2 9 20 25
40 16 21 55 73 87 117 53 73 57 81 42 97 -8 9 -15 22 -15 29 0 7 -16 46 -35
87 -19 41 -47 99 -60 129 -28 61 -39 65 -95 34z"/>
<path d="M1501 1204 c-102 -153 -110 -168 -93 -180 29 -23 40 -16 86 56 25 39
49 70 54 70 12 0 152 -99 152 -107 0 -3 -21 -37 -47 -74 -39 -57 -44 -71 -33
-84 22 -27 47 -17 79 33 17 26 37 56 45 67 7 11 41 63 75 115 l61 95 -22 17
c-31 24 -31 23 -56 -19 -12 -21 -32 -51 -44 -66 l-24 -29 -77 51 c-42 28 -77
54 -77 57 0 3 18 31 40 61 22 31 40 62 40 69 0 12 -29 34 -44 34 -3 0 -55 -75
-115 -166z"/>
<path d="M1837 999 c-75 -83 -137 -155 -137 -159 0 -4 12 -11 27 -15 24 -6 33
-1 66 34 21 23 41 41 45 41 3 0 36 -11 72 -25 l65 -25 -4 -57 c-2 -46 0 -59
15 -70 39 -28 41 -20 49 198 7 226 7 228 -41 229 -14 0 -64 -49 -157 -151z
m139 -75 c-4 -11 -12 -10 -43 2 -21 9 -42 19 -46 24 -5 4 13 32 40 61 l48 54
3 -64 c2 -35 1 -70 -2 -77z"/>
<path d="M3425 4230 l-48 -49 -65 36 c-62 35 -65 35 -78 18 -8 -10 -14 -21
-14 -24 1 -8 89 -61 101 -61 5 0 9 -4 9 -10 0 -12 -90 -79 -107 -80 -33 0 6
-50 39 -50 25 0 58 -27 58 -48 0 -17 -79 -15 -130 3 -24 8 -45 14 -47 12 -2
-2 0 -17 3 -34 8 -41 53 -56 152 -52 l76 4 22 -55 c19 -48 26 -55 53 -58 18
-2 31 1 31 8 0 6 -14 40 -30 77 l-30 66 22 16 c13 9 39 30 59 48 l36 33 47
-26 46 -26 11 26 c7 14 10 28 8 29 -2 2 -49 28 -104 57 -55 29 -102 55 -104
57 -3 2 12 20 32 41 42 43 44 52 19 75 -17 16 -21 14 -67 -33z m45 -169 c0
-12 -71 -71 -85 -71 -5 1 -19 15 -30 33 l-20 32 30 26 30 27 37 -19 c21 -11
38 -23 38 -28z"/>
<path d="M3746 3925 c-22 -17 -23 -15 62 -109 52 -57 53 -59 33 -73 -12 -8
-46 -19 -76 -26 -47 -9 -66 -9 -118 5 -34 9 -70 20 -79 23 -15 6 -18 1 -18
-29 0 -35 1 -36 57 -52 38 -11 78 -15 122 -12 l66 5 0 -121 0 -121 36 -3 36
-3 -14 53 c-11 42 -11 66 -3 117 9 54 30 112 46 130 3 3 34 -27 70 -67 58 -64
67 -70 85 -59 10 6 19 16 19 21 0 4 -27 37 -60 73 -33 35 -60 68 -60 72 0 11
58 61 71 61 14 0 11 23 -7 48 l-16 23 -49 -41 -49 -42 -57 62 c-32 35 -59 66
-61 71 -5 12 -14 11 -36 -6z"/>
<path d="M4202 3361 c-11 -6 -10 -16 2 -52 8 -24 13 -46 10 -49 -3 -3 -60 -28
-127 -56 -67 -28 -123 -57 -125 -65 -1 -8 3 -23 11 -33 12 -17 18 -15 107 24
52 23 108 45 123 50 16 5 34 13 40 18 7 5 38 19 70 32 31 12 57 24 57 27 0 21
-25 43 -50 43 -27 0 -80 41 -80 62 0 10 -22 10 -38 -1z"/>
<path d="M4257 3094 c-59 -18 -87 -58 -87 -126 0 -35 6 -54 26 -77 l26 -31
-47 0 c-38 0 -52 5 -76 29 -36 36 -36 54 -4 87 43 43 25 91 -24 64 -48 -25
-64 -104 -35 -167 28 -57 54 -68 169 -68 89 0 106 3 158 28 66 33 90 69 89
135 -1 104 -87 159 -195 126z m116 -69 c25 -24 31 -73 13 -100 -18 -27 -70
-41 -112 -31 -53 14 -65 107 -17 135 27 16 99 13 116 -4z"/>
<path d="M4205 2762 l-30 -3 3 -89 3 -89 -48 -3 c-45 -3 -48 -5 -51 -32 l-4
-29 56 5 56 5 0 -34 c0 -29 3 -33 25 -33 22 0 25 4 25 35 l0 34 133 3 132 3 3
25 c2 20 -7 31 -45 56 -26 17 -88 58 -138 90 -68 45 -97 58 -120 56z m119
-174 c-44 -3 -80 -5 -80 -5 -1 1 -5 30 -9 64 l-7 62 87 -57 87 -57 -78 -7z"/>
<path d="M4091 2405 c-28 -33 -31 -42 -31 -107 0 -68 1 -72 34 -103 62 -58
150 -57 207 1 31 32 34 41 34 93 l0 58 43 -16 c47 -17 48 -20 30 -117 -6 -35
-10 -66 -7 -68 2 -2 16 -6 31 -10 26 -6 26 -5 37 62 5 37 12 86 15 110 5 49 4
49 -114 83 -36 9 -75 21 -86 24 -30 9 -37 -34 -13 -72 27 -40 24 -60 -15 -99
-40 -40 -61 -42 -107 -11 -55 37 -53 114 4 143 60 31 65 64 8 64 -32 0 -44 -6
-70 -35z"/>
<path d="M3861 1736 l-21 -22 33 -31 c17 -16 67 -56 111 -88 93 -69 112 -102
90 -155 -18 -45 -58 -80 -90 -80 -36 0 -77 24 -174 102 -47 37 -91 67 -99 66
-7 -2 -20 -13 -28 -25 -14 -20 -10 -24 68 -85 139 -108 153 -117 186 -124 73
-14 144 30 190 119 29 58 27 113 -5 156 -10 14 -69 63 -129 108 l-111 82 -21
-23z"/>
<path d="M4222 1705 c-17 -36 -15 -40 14 -54 22 -10 28 -9 40 6 19 26 17 51
-5 63 -29 15 -37 13 -49 -15z"/>
<path d="M3536 1355 c-21 -16 -19 -27 40 -219 14 -43 22 -81 19 -84 -3 -3 -40
28 -83 70 -99 98 -133 128 -143 128 -4 0 -20 -5 -34 -12 -24 -11 -26 -15 -20
-52 4 -23 15 -75 26 -116 11 -41 24 -93 28 -115 l7 -40 -104 108 c-58 59 -109
107 -114 107 -5 0 -20 -7 -34 -17 l-25 -16 53 -54 c29 -30 97 -95 150 -144
l97 -90 29 15 c28 15 29 18 21 53 -21 85 -52 220 -57 248 -4 27 7 19 110 -77
64 -60 120 -108 124 -108 5 0 19 8 32 18 l23 18 -17 70 c-9 38 -27 107 -39
154 -13 47 -26 104 -30 128 -7 46 -24 53 -59 27z"/>
<path d="M3809 1171 c-22 -17 -22 -21 -10 -45 17 -31 28 -32 59 -6 23 19 23
20 5 44 -22 31 -25 31 -54 7z"/>
<path d="M2546 4494 c-23 -22 -27 -32 -21 -58 4 -17 8 -56 8 -86 l2 -55 -54
-3 c-30 -2 -59 2 -64 7 -19 19 -53 12 -79 -17 l-25 -28 22 -28 c21 -27 22 -27
114 -20 l93 7 -5 -54 c-3 -30 -9 -68 -12 -86 -6 -27 -3 -36 20 -57 l27 -26 30
21 29 21 -7 90 -7 91 91 -7 90 -7 20 28 19 28 -27 29 c-23 24 -33 27 -56 21
-16 -4 -53 -9 -83 -12 l-54 -5 6 89 c6 88 6 90 -21 116 l-28 27 -28 -26z"/>
<path d="M2412 2801 c2 -39 7 -73 11 -77 13 -13 269 -17 313 -5 48 13 75 50
54 76 -17 21 -25 19 -54 -10 -24 -24 -30 -25 -143 -24 -134 0 -128 11 14 27
104 12 113 15 113 43 0 29 -18 32 -123 15 -122 -20 -124 -20 -130 4 -4 14 -14
20 -32 20 l-27 0 4 -69z"/>
<path d="M2380 2551 l0 -150 43 -3 42 -3 -50 -19 c-27 -11 -51 -20 -53 -21 -8
-6 23 -55 35 -55 19 0 133 58 133 68 0 4 -5 13 -12 20 -9 9 4 12 58 12 66 0
71 -1 70 -22 -1 -14 12 -31 39 -49 51 -36 78 -37 93 -4 11 24 9 27 -34 48
l-47 22 54 5 c47 4 54 8 57 28 l3 22 -191 0 -192 0 3 120 c4 123 2 130 -37
130 -11 0 -14 -27 -14 -149z"/>
<path d="M2460 2585 l0 -115 140 0 140 0 0 115 0 115 -140 0 -140 0 0 -115z
m220 55 c0 -6 -35 -10 -85 -10 -50 0 -85 4 -85 10 0 6 35 10 85 10 50 0 85 -4
85 -10z m-37 -57 c-23 -2 -64 -2 -90 0 -26 2 -7 3 42 3 50 0 71 -1 48 -3z m37
-63 c0 -6 -35 -10 -85 -10 -50 0 -85 4 -85 10 0 6 35 10 85 10 50 0 85 -4 85
-10z"/>
<path d="M1743 2192 c-20 -15 -20 -19 -7 -36 22 -31 18 -35 -48 -38 -60 -3
-63 -4 -66 -30 l-3 -28 90 0 c74 0 91 -3 91 -15 0 -12 -14 -15 -70 -15 -68 0
-70 -1 -70 -25 0 -24 2 -25 70 -25 56 0 70 -3 70 -15 0 -12 -17 -15 -96 -15
l-95 0 3 -31 3 -32 93 2 c78 2 92 0 92 -13 0 -13 -15 -16 -85 -16 l-85 0 0
-30 0 -30 77 0 76 0 -23 -25 c-25 -27 -118 -75 -144 -75 -21 0 -20 -10 4 -39
18 -20 23 -22 52 -12 44 15 126 69 143 94 l15 21 15 -21 c18 -25 96 -75 144
-91 29 -10 37 -10 53 4 24 22 23 44 -2 44 -31 0 -138 57 -150 80 -10 18 -6 19
62 22 71 3 73 4 76 31 l3 27 -91 0 c-69 0 -91 3 -88 13 3 8 34 13 96 15 l92 3
0 29 0 30 -96 0 c-72 0 -95 3 -92 13 3 8 30 13 76 15 69 3 72 4 72 27 0 23 -3
24 -72 27 -46 2 -73 7 -76 16 -3 9 19 12 87 12 l91 0 0 30 c0 29 -1 30 -50 30
l-50 0 11 27 c7 20 6 30 -5 41 -20 20 -46 8 -46 -21 0 -13 -5 -28 -12 -35 -13
-13 -79 -17 -77 -4 3 19 -3 39 -19 59 -16 21 -18 21 -39 5z"/>
<path d="M3231 2196 c-9 -11 -9 -20 -2 -35 17 -30 15 -31 -49 -31 l-60 0 0
-30 0 -30 93 -2 92 -2 -77 -3 -78 -4 0 -29 0 -30 75 0 c43 0 75 -4 75 -10 0
-6 -38 -10 -95 -10 -95 0 -95 0 -95 -25 0 -23 4 -25 45 -25 25 0 45 -4 45 -9
0 -5 3 -16 6 -25 5 -12 -5 -15 -48 -18 -46 -3 -53 -6 -56 -25 l-3 -23 225 0
226 0 0 25 c0 23 -3 25 -51 25 -43 0 -50 3 -45 16 3 9 6 20 6 25 0 5 20 9 45
9 41 0 45 2 45 25 l0 25 -100 0 c-60 0 -100 4 -100 10 0 6 32 10 75 10 l75 0
0 30 0 30 -77 2 -78 2 95 5 c95 6 95 6 98 34 3 27 3 27 -57 27 -34 0 -61 3
-61 6 0 3 5 15 11 26 9 18 8 24 -7 35 -29 21 -41 15 -51 -24 -8 -35 -12 -38
-46 -41 -29 -3 -36 0 -31 12 7 17 -23 66 -41 66 -7 0 -18 -6 -24 -14z m69
-292 c0 -33 -33 -30 -38 4 -3 17 2 22 17 22 16 0 21 -6 21 -26z m100 17 c0
-23 -14 -41 -31 -41 -14 0 -19 7 -19 25 0 20 5 25 25 25 14 0 25 -4 25 -9z"/>
<path d="M3180 1730 c0 -79 0 -80 25 -80 14 0 25 5 25 10 0 6 38 10 94 10 53
0 98 -4 101 -10 3 -5 15 -10 26 -10 17 0 19 7 19 80 l0 80 -145 0 -145 0 0
-80z m240 5 c0 -12 -17 -15 -95 -15 -78 0 -95 3 -95 15 0 12 17 15 95 15 78 0
95 -3 95 -15z"/>
</g>
</svg>
